<?xml version="1.0" encoding="UTF-8" standalone="no"?>
<!-- Created with Inkscape (http://www.inkscape.org/) -->

<svg
   width="79.375305mm"
   height="18.60404mm"
   viewBox="0 0 79.375305 18.604041"
   version="1.1"
   id="svg2166"
   xmlns="http://www.w3.org/2000/svg"
   xmlns:svg="http://www.w3.org/2000/svg">
  <defs
     id="defs2163" />
  <g
     id="layer1"
     transform="translate(-69.34828,-106.23549)">
    <path
       d="m 70.365419,113.86359 a 0.37232008,0.37232008 0 0 1 0.09876,-0.21942 0.31069865,0.31069865 0 0 1 0.241303,-0.0931 h 2.45449 a 0.32970339,0.32970339 0 0 1 0.34007,0.26981 l 1.929268,6.44088 1.943667,-6.44088 a 0.36281771,0.36281771 0 0 1 0.361667,-0.26981 h 2.425695 a 0.34237321,0.34237321 0 0 1 0.23036,0.0893 0.33056724,0.33056724 0 0 1 0.117196,0.22258 q 0.247925,2.49682 0.507081,4.95477 0.259155,2.45794 0.506793,4.95274 v 0.0371 c 0,0.18428 -0.104239,0.27729 -0.31185,0.27729 h -2.007592 a 0.29658907,0.29658907 0 0 1 -0.340069,-0.313 l -0.617367,-5.48287 -1.595245,5.51858 a 0.39650792,0.39650792 0 0 1 -0.103086,0.17075 0.24216642,0.24216642 0 0 1 -0.17277,0.099 h -1.865055 a 0.27096147,0.27096147 0 0 1 -0.180834,-0.0959 0.30033243,0.30033243 0 0 1 -0.102803,-0.17277 l -1.596397,-5.50389 -0.61679,5.46876 a 0.30119628,0.30119628 0 0 1 -0.347845,0.313 h -2.007015 a 0.27326508,0.27326508 0 0 1 -0.305516,-0.313 z"
       fill="#FFFFFF"
       id="path878"
       style="stroke-width:0.28795" />
    <path
       d="m 86.482011,113.82788 a 0.20991596,0.20991596 0 0 1 0.04607,-0.0924 0.48087743,0.48087743 0 0 1 0.0956,-0.0915 0.46302449,0.46302449 0 0 1 0.120939,-0.0677 0.32970339,0.32970339 0 0 1 0.119499,-0.025 h 1.81668 a 0.29745293,0.29745293 0 0 1 0.205022,0.0754 0.8304494,0.8304494 0 0 1 0.127561,0.13044 l 0.177666,0.40313 3.724064,9.6043 a 0.209628,0.209628 0 0 1 -0.02159,0.23037 0.34352501,0.34352501 0 0 1 -0.268945,0.0884 h -2.036098 a 0.44056435,0.44056435 0 0 1 -0.251957,-0.0605 0.38700555,0.38700555 0 0 1 -0.138216,-0.20156 q -0.142535,-0.36225 -0.27672,-0.71988 -0.134185,-0.35763 -0.269522,-0.71988 H 85.88653 c -0.08956,0.24131 -0.181409,0.48059 -0.272977,0.71988 -0.09157,0.23929 -0.183425,0.47915 -0.272977,0.71988 a 0.35533099,0.35533099 0 0 1 -0.361667,0.26289 h -2.093112 a 0.34554067,0.34554067 0 0 1 -0.222874,-0.0717 q -0.08898,-0.0703 -0.03167,-0.21279 z m 1.290883,3.03616 c -0.09012,0.24044 -0.180546,0.50132 -0.272978,0.78005 -0.09243,0.27874 -0.183423,0.56007 -0.272688,0.84369 -0.08926,0.28364 -0.180834,0.5641 -0.273266,0.84083 -0.09243,0.27671 -0.183424,0.535 -0.272689,0.77746 h 2.176043 z"
       fill="#FFFFFF"
       id="path880"
       style="stroke-width:0.28795" />
    <path
       d="m 94.40785,113.87799 a 0.34726838,0.34726838 0 0 1 0.07833,-0.23756 0.29601317,0.29601317 0 0 1 0.234392,-0.0892 h 4.58187 a 3.4533911,3.4533911 0 0 1 1.369198,0.27297 3.5947748,3.5947748 0 0 1 1.11408,0.74119 3.4908246,3.4908246 0 0 1 0.74868,1.09565 3.319782,3.319782 0 0 1 0.27268,1.33695 3.1706235,3.1706235 0 0 1 -0.13101,0.91914 3.4326586,3.4326586 0 0 1 -0.92144,1.50397 3.5846965,3.5846965 0 0 1 -0.70548,0.52781 c 0,0 0.46072,1.19557 2.43433,3.55879 a 0.518311,0.518311 0 0 1 0.13937,0.34554 0.44286796,0.44286796 0 0 1 -0.0994,0.26664 c -0.15175,0.22805 -1.61252,1.37352 -2.87144,0.19724 -1.046407,-0.97903 -2.347657,-3.73558 -2.347657,-3.73558 h -1.148634 v 3.1974 c 0,0.203 -0.109421,0.30495 -0.326825,0.30495 h -2.110101 a 0.33459855,0.33459855 0 0 1 -0.226905,-0.0746 0.29025417,0.29025417 0 0 1 -0.08638,-0.23037 v -9.90175 z m 5.553703,3.14874 a 1.2266694,1.2266694 0 0 0 -0.07833,-0.4256 1.3821627,1.3821627 0 0 0 -0.219995,-0.38988 1.2727414,1.2727414 0 0 0 -0.340069,-0.29774 1.1725347,1.1725347 0 0 0 -0.439989,-0.15636 c -0.132169,-0.009 -0.256851,-0.0178 -0.372319,-0.0248 -0.115469,-0.007 -0.242743,-0.0112 -0.379808,-0.0112 h -0.979031 v 2.60365 h 1.304415 c 0.08639,0 0.160966,-0.003 0.227481,-0.007 0.06652,-0.004 0.139369,-0.0119 0.219419,-0.0208 a 1.1434517,1.1434517 0 0 0 0.447187,-0.14397 1.1664877,1.1664877 0 0 0 0.333159,-0.29199 1.2701499,1.2701499 0 0 0 0.205885,-0.38959 1.397712,1.397712 0 0 0 0.07112,-0.44489 z"
       fill="#FFFFFF"
       id="path882"
       style="stroke-width:0.28795" />
    <path
       d="m 103.86415,113.86186 a 0.28795056,0.28795056 0 0 1 0.0959,-0.22604 0.34554067,0.34554067 0 0 1 0.23784,-0.085 h 7.63069 a 0.3633936,0.3633936 0 0 1 0.22777,0.0784 0.32020102,0.32020102 0 0 1 0.11317,0.23266 v 1.76168 a 0.39996333,0.39996333 0 0 1 -0.0892,0.24418 0.29716498,0.29716498 0 0 1 -0.25168,0.11518 H 109.381 v 7.76718 a 0.3343106,0.3343106 0 0 1 -0.0927,0.23036 0.30407579,0.30407579 0 0 1 -0.24016,0.10361 h -2.07929 a 0.33344675,0.33344675 0 0 1 -0.22748,-0.0964 0.30724324,0.30724324 0 0 1 -0.106,-0.23728 v -7.76632 h -2.43923 a 0.33027929,0.33027929 0 0 1 -0.23784,-0.0922 0.35619484,0.35619484 0 0 1 -0.0959,-0.26895 z"
       fill="#FFFFFF"
       id="path884"
       style="stroke-width:0.28795" />
    <path
       d="m 113.981,113.86359 a 0.32538413,0.32538413 0 0 1 0.078,-0.21942 0.28622285,0.28622285 0 0 1 0.23324,-0.0931 h 2.0865 a 0.39996333,0.39996333 0 0 1 0.22633,0.0864 0.26549041,0.26549041 0 0 1 0.12122,0.22662 v 9.90867 c 0,0.20904 -0.11518,0.3127 -0.34727,0.3127 h -2.08649 a 0.27556869,0.27556869 0 0 1 -0.31128,-0.3127 v -9.9081 z"
       fill="#FFFFFF"
       id="path886"
       style="stroke-width:0.28795" />
    <path
       d="m 118.99508,113.86359 a 0.32797568,0.32797568 0 0 1 0.078,-0.21942 0.28795056,0.28795056 0 0 1 0.23411,-0.0931 h 2.31914 a 0.4921075,0.4921075 0 0 1 0.20589,0.0495 0.45409803,0.45409803 0 0 1 0.184,0.16989 q 0.901,1.45444 1.78789,2.8654 0.88688,1.41096 1.79479,2.86597 v -5.68098 a 0.34237321,0.34237321 0 0 1 0.11346,-0.19869 0.29946858,0.29946858 0 0 1 0.19868,-0.0714 h 2.0217 a 0.37951884,0.37951884 0 0 1 0.24793,0.0815 0.2824795,0.2824795 0 0 1 0.0996,0.23036 v 9.94494 a 0.25339649,0.25339649 0 0 1 -0.0864,0.20992 0.37203212,0.37203212 0 0 1 -0.23439,0.0671 h -2.26272 a 0.23525561,0.23525561 0 0 1 -0.16298,-0.0645 1.1063061,1.1063061 0 0 1 -0.14829,-0.17046 q -0.94333,-1.56041 -1.86564,-3.08511 -0.9223,-1.52469 -1.87168,-3.08567 v 6.09245 a 0.33862986,0.33862986 0 0 1 -0.0712,0.23439 0.33517445,0.33517445 0 0 1 -0.2557,0.0786 h -2.01393 a 0.29370957,0.29370957 0 0 1 -0.23727,-0.0887 0.32567209,0.32567209 0 0 1 -0.0746,-0.21625 v -9.91529 z"
       fill="#FFFFFF"
       id="path888"
       style="stroke-width:0.28795" />
    <path
       d="m 130.54911,113.87799 a 0.33632625,0.33632625 0 0 1 0.0815,-0.23756 0.29543728,0.29543728 0 0 1 0.23036,-0.0892 h 7.03665 a 0.31012275,0.31012275 0 0 1 0.24188,0.0927 0.34813223,0.34813223 0 0 1 0.0864,0.2465 v 1.7539 a 0.36742491,0.36742491 0 0 1 -0.0864,0.23036 0.29716498,0.29716498 0 0 1 -0.24879,0.11 h -4.59713 v 1.75851 h 3.54668 a 0.37433573,0.37433573 0 0 1 0.22316,0.0642 0.24504592,0.24504592 0 0 1 0.089,0.21366 v 1.5319 a 0.29313367,0.29313367 0 0 1 -0.0786,0.1912 0.27959999,0.27959999 0 0 1 -0.22748,0.0924 h -3.55331 v 1.8161 h 4.76673 a 0.2847831,0.2847831 0 0 1 0.31935,0.32539 v 1.78269 a 0.6959765,0.6959765 0 0 1 -0.0109,0.12728 c -0.0257,0.13073 -0.16183,0.19811 -0.33719,0.19811 h -7.17141 a 0.33575035,0.33575035 0 0 1 -0.22691,-0.0743 0.29025417,0.29025417 0 0 1 -0.0847,-0.23037 v -9.90262 z"
       fill="#FFFFFF"
       id="path890"
       style="stroke-width:0.28795" />
    <path
       d="m 139.81478,113.86186 a 0.30062039,0.30062039 0 0 1 0.0884,-0.22604 0.34006961,0.34006961 0 0 1 0.24447,-0.085 h 8.23538 a 0.35849845,0.35849845 0 0 1 0.23036,0.0784 0.28593491,0.28593491 0 0 1 0.095,0.23411 v 1.43255 c 0,0.0378 0,0.0731 -0.003,0.10654 a 0.3872935,0.3872935 0 0 1 -0.0392,0.12786 l -5.13503,6.12067 h 4.8727 a 0.34122142,0.34122142 0 0 1 0.2269,0.078 0.30234809,0.30234809 0 0 1 0.0919,0.2416 v 1.76628 a 0.37433573,0.37433573 0 0 1 -0.0889,0.2344 0.27700843,0.27700843 0 0 1 -0.23036,0.11317 h -8.23538 a 0.32596003,0.32596003 0 0 1 -0.23699,-0.0931 0.33747805,0.33747805 0 0 1 -0.0959,-0.25514 v -1.52613 a 0.32279257,0.32279257 0 0 1 0.0495,-0.18486 l 5.12091,-6.04063 h -4.85772 a 0.30033243,0.30033243 0 0 1 -0.33287,-0.34554 v -1.77608 z"
       fill="#FFFFFF"
       id="path892"
       style="stroke-width:0.28795" />
    <path
       d="m 101.61928,107.45669 a 0.14397527,0.14397527 0 0 1 0.072,0.0369 0.09300804,0.09300804 0 0 1 0.0219,0.0833 l -0.18429,0.63579 a 0.08638517,0.08638517 0 0 1 -0.0357,0.0576 0.09991885,0.09991885 0 0 1 -0.0711,0.004 0.85492521,0.85492521 0 0 0 -0.27212,-0.0423 0.88141665,0.88141665 0 0 0 -0.28046,0.0492 0.81893139,0.81893139 0 0 0 -0.29889,0.17709 0.83016146,0.83016146 0 0 0 -0.1912,0.26807 0.90790811,0.90790811 0 0 0 -0.0737,0.32626 0.98565476,0.98565476 0 0 0 0.22576,0.65451 0.89466239,0.89466239 0 0 0 0.25915,0.20904 0.83505662,0.83505662 0 0 0 0.31675,0.0927 0.82353859,0.82353859 0 0 0 0.34554,-0.0446 0.90474065,0.90474065 0 0 0 0.25282,-0.13563 0.86557938,0.86557938 0 0 0 0.19005,-0.20387 0.11287662,0.11287662 0 0 1 0.0576,-0.0411 0.08811287,0.08811287 0 0 1 0.0639,0.0213 l 0.54509,0.39766 a 0.09272008,0.09272008 0 0 1 0.0337,0.0772 0.13994397,0.13994397 0 0 1 -0.0351,0.0714 1.7677285,1.7677285 0 0 1 -0.35907,0.35706 1.764561,1.764561 0 0 1 -0.91453,0.33373 1.6568675,1.6568675 0 0 1 -0.44489,-0.0305 1.7133058,1.7133058 0 0 1 -0.78466,-0.38125 1.6911336,1.6911336 0 0 1 -0.29803,-0.33085 1.7331744,1.7331744 0 0 1 -0.26981,-1.31363 1.7697441,1.7697441 0 0 1 0.14052,-0.41868 1.6701132,1.6701132 0 0 1 0.24159,-0.36714 1.7478599,1.7478599 0 0 1 0.33172,-0.2986 1.6381508,1.6381508 0 0 1 0.4135,-0.2079 1.7118661,1.7118661 0 0 1 0.50737,-0.0956 1.77032,1.77032 0 0 1 0.49469,0.059 z"
       fill="#FFFFFF"
       id="path896"
       style="stroke-width:0.28795" />
    <path
       d="m 105.4853,106.53208 a 0.06421297,0.06421297 0 0 1 0.011,-0.0308 0.18371245,0.18371245 0 0 1 0.0625,-0.0576 0.09819115,0.09819115 0 0 1 0.0374,-0.0118 l 0.57302,-0.066 a 0.09300804,0.09300804 0 0 1 0.0677,0.0152 0.25512419,0.25512419 0 0 1 0.045,0.0374 l 0.0708,0.12094 1.52297,2.89535 a 0.06622863,0.06622863 0 0 1 10e-4,0.074 0.104814,0.104814 0 0 1 -0.0821,0.0374 l -0.64184,0.0735 a 0.13936807,0.13936807 0 0 1 -0.0824,-0.01 0.11518022,0.11518022 0 0 1 -0.0501,-0.0576 c -0.0392,-0.0726 -0.0775,-0.14397 -0.11345,-0.21654 -0.036,-0.0726 -0.0746,-0.14397 -0.11172,-0.21768 l -1.1878,0.13706 c -0.0205,0.0786 -0.04,0.15779 -0.0602,0.23612 -0.0201,0.0784 -0.0409,0.15722 -0.0605,0.23669 a 0.11143687,0.11143687 0 0 1 -0.10448,0.0959 l -0.65998,0.0761 a 0.10970916,0.10970916 0 0 1 -0.0735,-0.0138 c -0.0208,-0.0129 -0.0264,-0.0352 -0.017,-0.0663 z m 0.51832,0.91165 c -0.0199,0.0784 -0.0386,0.16442 -0.0576,0.2557 -0.019,0.0913 -0.038,0.184 -0.0558,0.27643 -0.0178,0.0924 -0.0369,0.1843 -0.0562,0.27442 -0.0193,0.0901 -0.0385,0.17623 -0.0576,0.25484 l 0.68676,-0.078 z"
       fill="#FFFFFF"
       id="path898"
       style="stroke-width:0.28795" />
    <path
       d="m 110.35139,106.33022 a 0.09790319,0.09790319 0 0 1 0.0311,-0.0705 0.09156828,0.09156828 0 0 1 0.0642,-0.0242 l 2.14812,0.18515 a 0.09502369,0.09502369 0 0 1 0.0749,0.0352 0.11518022,0.11518022 0 0 1 0.0198,0.0815 l -0.0481,0.5546 a 0.12324284,0.12324284 0 0 1 -0.0331,0.0702 0.09300804,0.09300804 0 0 1 -0.0821,0.0288 l -1.36461,-0.11749 -0.0599,0.69598 1.00783,0.0864 a 0.10999711,0.10999711 0 0 1 0.0694,0.0287 0.08955263,0.08955263 0 0 1 0.0224,0.0777 l -0.0464,0.53617 a 0.11777178,0.11777178 0 0 1 -0.032,0.0711 0.08120206,0.08120206 0 0 1 -0.0731,0.0288 l -1.01243,-0.0864 -0.0887,1.02855 c -0.005,0.0642 -0.0427,0.0931 -0.11172,0.0864 l -0.68503,-0.0576 a 0.08638517,0.08638517 0 0 1 -0.0723,-0.10197 z"
       fill="#FFFFFF"
       id="path900"
       style="stroke-width:0.28795" />
    <path
       d="m 115.56156,107.0789 a 0.1065417,0.1065417 0 0 1 0.0467,-0.0645 0.09070443,0.09070443 0 0 1 0.078,-0.007 l 2.14437,0.63349 a 0.09646344,0.09646344 0 0 1 0.0651,0.0495 0.11287662,0.11287662 0 0 1 0.003,0.0826 l -0.15751,0.53501 a 0.11518022,0.11518022 0 0 1 -0.0469,0.0625 0.09761524,0.09761524 0 0 1 -0.0864,0.0112 l -1.39973,-0.41379 -0.15837,0.53616 1.08038,0.31877 a 0.12295489,0.12295489 0 0 1 0.0628,0.0392 0.07774665,0.07774665 0 0 1 0.008,0.0731 l -0.13764,0.46705 a 0.09272008,0.09272008 0 0 1 -0.11834,0.0576 l -1.08298,-0.31905 -0.16327,0.55257 1.45185,0.42819 a 0.09128033,0.09128033 0 0 1 0.0677,0.12842 l -0.1604,0.54308 a 0.0535588,0.0535588 0 0 1 -0.0288,0.0337 c -0.0179,0.0386 -0.0532,0.0495 -0.10622,0.034 l -2.18525,-0.64357 a 0.1025104,0.1025104 0 0 1 -0.0625,-0.0446 0.08868878,0.08868878 0 0 1 -0.005,-0.0766 z"
       fill="#FFFFFF"
       id="path902"
       style="stroke-width:0.28795" />
  </g>
</svg>
