<svg id="Layer_1" enable-background="new 0 0 512 512" viewBox="0 0 512 512" xmlns="http://www.w3.org/2000/svg" width="300" height="300" version="1.1" xmlns:xlink="http://www.w3.org/1999/xlink" xmlns:svgjs="http://svgjs.dev/svgjs"><g width="100%" height="100%" transform="matrix(1,0,0,1,0,0)"><g id="Layer_2_00000072978390463099678060000009900624091053535423_"><g id="Layer_copy_4"><g id="_112"><path d="m195.6 436h-45.1c-12.9-.3-23.7 10-23.9 23-.3 12.9 10 23.7 23 23.9h1 45.1c12.9.3 23.7-10 23.9-23 .3-12.9-10-23.7-23-23.9-.4 0-.7 0-1 0zm0 32.2h-45.1c-4.9 0-8.8-4-8.8-8.8 0-4.9 3.9-8.8 8.8-8.8h45.1c4.9 0 8.8 3.9 8.8 8.8s-3.9 8.8-8.8 8.8z" fill="#7fbd43" fill-opacity="1" data-original-color="#000000ff" stroke="none" stroke-opacity="1"/><path d="m454.9 286.9c-12-13.3-26.1-23.6-38.3-31.9-13-8.8-25.3-8.6-37.8.9-7.1 5.4-13.1 11.9-18.8 18.2-.8.8-1.3 1.4-1.8 1.8-.3-.3-.8-.7-1.3-1.2-5.2-5.1-10.3-10.3-15.1-15.6v-91.4c3.2 3.4 7.4 5.9 12 7 9.9 2.6 15.8 8.4 18.1 17.8.8 3.2.5 7.2.2 11.4l-.1 1.6c-.8 11.5 6.8 21.2 17.9 22.9 1.1.2 2.2.2 3.3.2 10 0 18.7-7.1 20.5-17 .6-2.9.9-5.8 1.2-8.6.1-1.2.3-2.4.4-3.5v-.5-.5c-.2-31.8-23.4-59.9-54-65.4-7.3-1.3-14.7 1.3-19.6 6.9v-76.3c0-35.1-28.5-63.6-63.6-63.7h-210.2c-35.2 0-63.7 28.5-63.7 63.7v384.6c0 35.2 28.5 63.7 63.7 63.7h210.3c35.2 0 63.7-28.5 63.7-63.7v-105c1.2.7 2.3 1.4 3.5 2.1 18.5 10.6 35.1 15.6 52.3 15.8h.4c11.6 0 23-2.5 33.5-7.3 13.4-6.1 23.2-14.2 30.1-24.7s7.1-21.8.6-32.3c-2.1-3.6-4.6-6.9-7.4-10zm-103.5-134.7c.7-2.8 3.3-4.8 6.2-4.8.4 0 .8 0 1.2.1 23.6 4.3 41.5 26 41.9 50.6-.1 1.1-.2 2.1-.4 3.2-.3 2.6-.6 5.1-1 7.5-.7 3.3-3.8 5.5-7.2 5-3.6-.6-5.8-3.5-5.5-7.5l.1-1.6c.3-4.9.7-10.5-.6-15.9-3.6-14.7-13.5-24.5-28.7-28.4-2.3-.5-4.3-1.8-5.6-3.7-.6-1.3-.8-3-.4-4.5zm-24.2 296.1c0 27.1-21.9 49-49 49.1h-210.3c-27.1 0-49-22-49.1-49.1v-384.6c0-27.1 22-49 49.1-49.1h210.3c27.1.1 49 22 49 49.1v177.8c-5.1-6.7-10-13.5-14.5-20.5v-78.6c10.4-6.9 14.3-16.8 11.9-30.2-2.5-14.7-6.5-29.1-11.9-43v-5.6c0-19.1-15.4-34.5-34.5-34.5h-210.3c-19.1 0-34.5 15.5-34.6 34.5v323.4c0 19.1 15.5 34.5 34.6 34.5h210.3c19.1 0 34.5-15.5 34.5-34.5v-64.3c4.7 3.9 9.5 7.6 14.5 11zm-29.1-252.6c-6.2-12.1-11.6-24.5-16.1-37.3-.2-.6-.4-1.1-.5-1.5.3-.2.8-.4 1.5-.7 2.3-1 4.6-2 6.9-2.9 2.7-1.1 5.4-2.3 8.2-3.5zm-84.5-43.2c5.5 33.9 17.9 66 37.8 98.3 14.1 22.9 29.6 42.4 46.7 59v77.3c0 11-8.9 19.9-19.9 19.9h-210.3c-11 0-19.9-8.9-19.9-19.9v-323.4c0-11 8.9-19.9 19.9-19.9h199.8l-.5.2c-27.3 10.1-45.1 29-53 56.1-5.4 18.4-3.1 36.7-.6 52.4zm235.8 168.6c-5.3 8.1-13.2 14.5-24 19.4-8.6 4-17.9 6-27.4 6h-.3c-14.6-.1-29-4.5-45.2-13.8-3.7-2.1-7.3-4.3-10.8-6.6-5-3.2-9.9-6.7-14.6-10.4-5-3.9-9.8-7.9-14.5-12.2-5-4.6-9.9-9.5-14.6-14.6-12.9-14.1-24.3-29.4-34.2-45.7-18.8-30.6-30.6-61-35.8-93-2.3-14.1-4.4-30.4.1-45.9 6.6-22.5 21.4-38.1 44.1-46.5 11.5-4.3 19.2-.9 24.2 10.7.5 1.2 1.1 2.4 1.5 3.7 5.5 13.8 9.6 28.1 12.1 42.8 1.6 8.6-.4 12.9-8 16.9-1.3.7-2.7 1.4-4.1 2.1-4.4 2.1-9 4.1-13.8 6.1-2.4 1-4.7 2-7.1 3-9.6 4.2-12.5 10.7-9 20.5 7.7 21.7 17.7 42.5 29.9 62 4.6 7.3 9.5 14.4 14.6 21.3 4.6 6.2 9.4 12.1 14.5 17.9 4.7 5.4 9.5 10.6 14.6 15.7 1.6 1.6 3.3 3.2 4.9 4.8 3.1 3 6.9 6 12 5.8 5-.2 8.8-3.5 12.1-7 5.3-5.8 10.8-11.8 16.9-16.4 7.4-5.6 13-5.7 20.7-.5 11.5 7.8 24.7 17.5 35.6 29.6 2.2 2.4 4.1 5 5.8 7.8 3.7 5.5 3.6 10.8-.2 16.5z" fill="#7fbd43" fill-opacity="1" data-original-color="#000000ff" stroke="none" stroke-opacity="1"/><path d="m507.8 189.7c-1-28.2-8.5-53.8-22.4-76-21.9-35-53.6-57.3-94.1-66.3-9.1-2.2-18.6 1.9-23.3 10.1-4.8 8.5-3.5 18.7 3.2 24.9 3.7 3.2 8.1 5.5 12.8 6.6 33 8.2 56.2 26.9 70.9 57.2 9.6 19.8 12.3 41.7 7.8 65.1-2.3 11.3 5 22.3 16.2 24.6.3.1.5.1.8.1 1.2.2 2.5.3 3.7.3 10.3 0 19-7.4 20.6-17.6 1.1-6.6 1.8-13.2 2.6-19.6.3-2.8.6-5.5 1-8.3l.1-.6zm-15.6 7.8c-.7 6.3-1.5 12.7-2.5 19-.2 1.6-1.1 3.1-2.5 4.1s-3.2 1.4-4.9 1.1c-3.4-.5-5.8-3.7-5.3-7.1 0-.2.1-.4.1-.5 5.1-26.5 2-51.5-9-74.3-16.5-34-43.6-55.9-80.5-65-2.4-.5-4.6-1.6-6.5-3.2-1.8-1.7-1.5-4.8-.4-6.8s3.3-3.3 5.6-3.2c.6 0 1.2.1 1.8.2 36.5 8.1 65.1 28.3 84.9 59.8 12.4 19.8 19.2 42.8 20.2 68.2-.4 2.5-.7 5.1-1 7.7z" fill="#7fbd43" fill-opacity="1" data-original-color="#000000ff" stroke="none" stroke-opacity="1"/><path d="m365.4 130.7c1.3.4 2.6.7 3.7 1 .6.1 1.2.3 1.8.4 21.2 5.9 35.6 18.9 43.8 39.5 4.3 10.8 5.3 22.4 2.9 35.4-1.1 5.8.1 11.8 3.4 16.7 3.2 4.5 8 7.6 13.5 8.5 1.3.2 2.6.3 3.9.4 10.2 0 18.7-7 20.6-17.6.9-4.8 1.4-9.5 1.9-14.1.2-1.9.4-3.7.6-5.5l.1-.8-.1-.9c-.2-2-.4-3.9-.6-5.7-.4-4.1-.8-8-1.4-12-6.8-42.5-42.1-78.7-83.9-86-11.2-2.9-22.7 3.9-25.5 15.2-2.7 11.2 4.1 22.6 15.3 25.5zm.4-21.5c.7-2.9 3.3-4.9 6.3-4.9.4 0 .9 0 1.3.1 35.3 6.2 66.2 37.9 72 73.9.6 3.5.9 7.1 1.3 11 .2 1.7.3 3.4.5 5.1-.2 1.6-.4 3.2-.6 4.9-.5 4.3-1 8.8-1.7 13.1-.4 3.4-3.5 5.9-6.9 5.5-.2 0-.4-.1-.7-.1-1.6-.2-3.1-1.1-4-2.4-1.1-1.7-1.4-3.7-1-5.7 2.8-15.6 1.6-30.2-3.8-43.4-9.9-24.8-27.9-41-53.5-48.1-.8-.2-1.6-.4-2.4-.6s-1.8-.4-2.5-.7c-3.3-1.1-5.2-4.4-4.3-7.7z" fill="#7fbd43" fill-opacity="1" data-original-color="#000000ff" stroke="none" stroke-opacity="1"/></g></g></g></g></svg>