<svg id="Layer_1" enable-background="new 0 0 512 512" viewBox="0 0 512 512" xmlns="http://www.w3.org/2000/svg" width="300" height="300" version="1.1" xmlns:xlink="http://www.w3.org/1999/xlink" xmlns:svgjs="http://svgjs.dev/svgjs"><g width="100%" height="100%" transform="matrix(1,0,0,1,0,0)"><path d="m381.556 181.273c33.026 0 59.896-26.868 59.896-59.894 0-33.021-26.869-59.887-59.896-59.887-33.025 0-59.894 26.865-59.894 59.887 0 33.026 26.868 59.894 59.894 59.894zm0-105.78c25.307 0 45.896 20.585 45.896 45.887 0 25.306-20.589 45.894-45.896 45.894-25.306 0-45.894-20.588-45.894-45.894 0-25.302 20.588-45.887 45.894-45.887zm105.033 182.708c-10.413-17.889-25.328-32.932-43.134-43.5-3.221-1.911-7.369-.949-9.425 2.177l-27.803 42.34-3.263-24.339c1.056-1.372 1.9-2.933 2.458-4.653l3.989-12.275v-.001c1.548-4.765.753-9.811-2.179-13.846s-7.486-6.35-12.495-6.35h-26.361c-5.01 0-9.564 2.314-12.496 6.351-2.933 4.035-3.726 9.082-2.178 13.846l3.988 12.275c.559 1.72 1.403 3.28 2.459 4.653l-3.263 24.339-27.802-42.338c-2.056-3.127-6.205-4.087-9.425-2.177-19.631 11.652-35.427 28.653-45.802 48.531h-35.713c-10.375-19.88-26.171-36.881-45.802-48.533-3.221-1.911-7.37-.949-9.425 2.177l-27.803 42.34-3.264-24.339c1.056-1.372 1.901-2.933 2.46-4.652l3.988-12.275c1.548-4.764.755-9.811-2.178-13.846-2.932-4.036-7.486-6.351-12.496-6.351h-26.361c-5.009 0-9.563 2.314-12.495 6.35s-3.727 9.081-2.179 13.847l3.989 12.275c.559 1.719 1.403 3.28 2.458 4.652l-3.263 24.34-27.802-42.339c-2.055-3.127-6.205-4.087-9.425-2.177-17.806 10.568-32.721 25.61-43.134 43.5-10.737 18.445-16.412 39.535-16.412 60.991 0 9.898 4.308 18.829 12.802 26.544 21.854 19.846 67.109 27.83 108.674 27.83 7.438 0 14.757-.259 21.805-.748v67.435c0 5.653 4.6 10.252 10.253 10.252h186.934c5.653 0 10.253-4.599 10.253-10.252v-67.434c7.047.489 14.363.748 21.805.748 41.562-.001 86.822-7.985 108.674-27.83 8.494-7.715 12.802-16.646 12.802-26.544-.002-21.458-5.677-42.549-16.413-60.994zm-119.383-45.867c.191-.265.551-.579 1.17-.579h26.361c.619 0 .978.314 1.17.579.191.264.38.702.189 1.291l-3.989 12.275c-.21.646-.68.987-1.358.987h-18.385c-.68 0-1.149-.341-1.359-.987l-3.988-12.275c-.192-.589-.003-1.027.189-1.291zm6.262 28.554h16.176l4.853 36.193-12.941 19.707-12.941-19.707zm-87.321 40.338v17.11h-9.994c1.44-7.249 3.637-14.301 6.516-21.048 1.93.263 3.478 1.95 3.478 3.938zm59.573 47.781-72.924 29.974v-5.355c0-3.866-3.134-7-7-7h-19.593c-3.866 0-7 3.134-7 7v5.355l-72.923-29.974v-16.671h179.44zm-86.924 31.619v18.941c0 1.516-1.28 2.796-2.796 2.796-1.517 0-2.797-1.28-2.797-2.796v-18.941zm-29.464-83.338c2.879 6.747 5.075 13.799 6.515 21.048h-9.994v-17.11c0-1.989 1.549-3.676 3.479-3.938zm38.292-.054c-2.53 6.818-4.448 13.88-5.709 21.102h-11.83c-1.261-7.221-3.179-14.283-5.708-21.102zm-151.531-64.9c.192-.265.551-.579 1.17-.579h26.361c.619 0 .979.314 1.17.579.192.264.381.702.189 1.291l-3.988 12.274c-.21.646-.68.988-1.359.988h-18.385c-.679 0-1.148-.341-1.358-.987l-3.989-12.274c-.192-.589-.003-1.028.189-1.292zm6.262 28.554h16.176l4.853 36.193-12.941 19.707-12.941-19.707zm-91.141 94.486c-5.527-5.02-8.214-10.312-8.214-16.18 0-35.503 17.872-68.962 47.055-88.862l54.537 83.051c1.295 1.971 3.494 3.157 5.852 3.157s4.557-1.187 5.852-3.157l54.537-83.052c13.156 8.975 24.082 20.771 32.085 34.294-6.491 2.719-11.064 9.135-11.064 16.601v17.11h-49.319c-5.653 0-10.253 4.6-10.253 10.253v50.194c-50.669 3.743-101.908-6.009-121.068-23.409zm135.066 101.133v-92.363l72.923 29.974v5.449c0 9.261 7.535 16.796 16.797 16.796 9.261 0 16.796-7.535 16.796-16.796v-5.449l72.924-29.974v92.363zm314.506-101.133c-19.159 17.4-70.397 27.153-121.066 23.409v-50.194c0-5.653-4.6-10.253-10.253-10.253h-49.319v-17.11c0-7.465-4.573-13.881-11.062-16.6 8.003-13.522 18.928-25.317 32.084-34.293l54.536 83.05c1.295 1.971 3.494 3.157 5.852 3.157s4.557-1.187 5.852-3.157l54.538-83.053c29.181 19.9 47.052 53.359 47.052 88.864 0 5.868-2.687 11.16-8.214 16.18zm-350.343-154.101c33.026 0 59.895-26.868 59.895-59.894 0-33.021-26.868-59.887-59.895-59.887s-59.894 26.866-59.894 59.888c0 33.025 26.868 59.893 59.894 59.893zm0-105.78c25.307 0 45.895 20.585 45.895 45.887 0 25.306-20.588 45.894-45.895 45.894s-45.895-20.588-45.895-45.894c.001-25.302 20.589-45.887 45.895-45.887z" fill="#dfdfdf" fill-opacity="1" data-original-color="#000000ff" stroke="none" stroke-opacity="1"/></g></svg>