<svg id="Layer_1" enable-background="new 0 0 512 512" viewBox="0 0 512 512" xmlns="http://www.w3.org/2000/svg" width="300" height="300" version="1.1" xmlns:xlink="http://www.w3.org/1999/xlink" xmlns:svgjs="http://svgjs.dev/svgjs"><g width="100%" height="100%" transform="matrix(1,0,0,1,0,0)"><path d="m136.401 330.563c0 3.935-3.19 7.125-7.125 7.125-3.936 0-7.125-3.19-7.125-7.125s3.19-7.125 7.125-7.125c3.934 0 7.125 3.19 7.125 7.125zm116.902 72.768c3.935 0 7.125-3.19 7.125-7.125s-3.19-7.125-7.125-7.125-7.125 3.19-7.125 7.125 3.19 7.125 7.125 7.125zm-173.494-115.559c-3.935 0-7.125 3.19-7.125 7.125s3.19 7.125 7.125 7.125 7.125-3.19 7.125-7.125-3.19-7.125-7.125-7.125zm84.249 82.919c3.935 0 7.125-3.19 7.125-7.125s-3.19-7.125-7.125-7.125-7.125 3.19-7.125 7.125c-.001 3.935 3.19 7.125 7.125 7.125zm18.76 63.878c3.935 0 7.125-3.19 7.125-7.125s-3.19-7.125-7.125-7.125-7.125 3.19-7.125 7.125 3.19 7.125 7.125 7.125zm23.809-37.378c3.936 0 7.125-3.19 7.125-7.125s-3.19-7.125-7.125-7.125-7.125 3.19-7.125 7.125 3.19 7.125 7.125 7.125zm296.413 19.947c0 42.542-29.138 77.152-64.952 77.152-10.096 0-20.023-2.775-28.977-8.066-8.953 5.291-18.881 8.066-28.977 8.066-23.805 0-44.648-15.3-55.958-38.047-19.02 11.955-40.71 18.268-63.342 18.361-8.176 4.285-16.724 7.933-25.582 10.875-17.673 5.869-36.033 8.793-54.35 8.793-20.799 0-41.54-3.774-61.161-11.278-11.179 7.138-24.437 11.296-38.655 11.296-39.727 0-72.046-32.319-72.046-72.046 0-14.23 4.164-27.498 11.312-38.683-18.529-48.615-14.318-102.061 11.752-147.218 1.934-3.348 6.216-4.492 9.562-2.562l97.868 56.504v-6.289c0-45.062 24.808-84.434 61.479-105.193-4.699-13.921-18.21-42.172-53.219-57.291-3.088-1.333-4.791-4.676-4.055-7.958.736-3.283 3.707-5.602 7.066-5.464 1.701.057 22.205.905 45.74 8.286-4.899-14.139-13.645-31.086-28.758-39.812-2.894-1.67-4.203-5.152-3.127-8.315s4.244-5.129 7.549-4.685c.97.129 24.033 3.324 47.312 17.904 4.588 2.874 9.36 6.323 14.038 10.419 5.528-51.35 20.609-70.693 21.308-71.561 1.328-1.654 3.336-2.616 5.457-2.616s4.128.962 5.457 2.616c.698.869 15.78 20.211 21.307 71.562 4.678-4.096 9.451-7.545 14.04-10.419 23.279-14.58 46.342-17.775 47.312-17.904 3.311-.444 6.474 1.521 7.549 4.685 1.076 3.163-.233 6.646-3.127 8.315-15.114 8.726-23.859 25.673-28.758 39.812 23.536-7.382 44.04-8.229 45.742-8.287 3.396-.128 6.33 2.181 7.066 5.464.736 3.282-.967 6.625-4.055 7.958-35.003 15.116-48.518 43.369-53.219 57.292 36.671 20.759 61.479 60.131 61.479 105.193v56.008c7.193.129 14.288 1.659 20.992 4.51v-25.738c0-3.866 3.134-7 7-7s7 3.134 7 7v25.738c7.009-2.981 14.446-4.527 21.977-4.527 35.816-.001 64.954 34.609 64.954 77.15zm-172.988-49.073-25.602-25.601-27.284 27.283 41.146 23.756c2.55-9.388 6.565-18 11.74-25.438zm-176.92 54.18c0 9.859-1.995 19.26-5.595 27.826 54.666 14.351 113.24-8.263 144.157-55.771l-228.366-131.847c-14.644 28.801-18.206 62.076-10.033 93.327 7.214-3.028 15.024-4.902 23.198-5.419v-15.104c0-3.866 3.134-7 7-7s7 3.134 7 7v15.576c35.294 4.625 62.639 34.875 62.639 71.412zm.403-138.249v13.089l8.645-8.645-8.558-8.558c-.052 1.366-.087 2.735-.087 4.114zm94.422-106.072 12.37 12.369 12.369-12.369c-4.06-.47-8.186-.72-12.369-.72-4.184 0-8.31.25-12.37.72zm119.075 101.957-8.559 8.559 8.646 8.646v-13.09c0-1.379-.035-2.749-.087-4.115zm-2.146-17.651c-3.595-17.292-11.382-33.065-22.25-46.203l-28.287 28.289 34.225 34.226zm-100.271 100.27 29.936-29.936-34.225-34.225-34.225 34.224 18.218 18.219zm-48.412-108.285-34.225 34.225 34.225 34.225 34.224-34.225zm44.123 24.326 34.225-34.225-34.224-34.225-34.226 34.226zm-88.247 19.798-6.806 6.805 32.204 18.593zm132.371 24.326 34.226-34.225-34.226-34.225-34.225 34.225zm28.573-116.821c-12.269-11.42-27.216-19.997-43.788-24.662l-19.01 19.01 34.225 34.225zm-145.394.001 28.573 28.572 34.226-34.226-19.01-19.01c-16.572 4.667-31.52 13.244-43.789 24.664zm-9.613 10.183c-10.867 13.138-18.654 28.91-22.249 46.202l16.312 16.311 34.225-34.225zm189.103 125.517v-24.661l-18.545-18.544-34.225 34.225 24.787 24.788c7.98-7.736 17.526-13.272 27.983-15.808zm-29.296-214.357c-20.979 5.259-46.973 15.857-61.529 37.073 10.738 1.424 21.035 4.262 30.697 8.324 4.129-11.483 12.986-29.732 30.832-45.397zm-68.775 23.391c10.544-12.806 24.455-21.759 38.568-28.017 3.073-11.829 8.065-25.39 16.171-37.17-5.001 2.149-10.33 4.841-15.629 8.193-21.566 13.645-34.66 32.767-39.11 56.994zm-22.627-45.14c5.429 6.939 10.257 15.09 13.905 24.625 3.647-9.536 8.476-17.686 13.905-24.625-2.355-34.096-9.048-55.023-13.908-66.146-4.858 11.112-11.545 32.02-13.902 66.146zm-33.385 17.123c14.113 6.258 28.022 15.21 38.567 28.015-4.45-24.226-17.544-43.347-39.11-56.991-5.298-3.353-10.626-6.044-15.628-8.193 8.106 11.779 13.098 25.339 16.171 37.169zm.628 50.022c9.662-4.062 19.958-6.899 30.696-8.324-14.556-21.213-40.548-31.812-61.527-37.072 17.847 15.666 26.702 33.914 30.831 45.396zm-182.963 198.23c3.069-3.007 6.398-5.75 9.962-8.174-10.257-35.753-6.471-74.168 10.531-107.192l-10.334-5.967c-19.64 37.699-23.216 81.01-10.159 121.333zm50.386 109.477c32.006 0 58.045-26.039 58.045-58.046 0-28.804-21.092-52.763-48.639-57.272v7.673c0 3.866-3.134 7-7 7s-7-3.134-7-7v-8.248c-29.866 2.352-53.452 27.388-53.452 57.847 0 32.006 26.039 58.046 58.046 58.046zm233.069-73.023-10.321-5.959c-16.953 26.344-42.091 46.706-71.458 57.723-16.543 6.205-34.025 9.318-51.486 9.318-13.569 0-27.124-1.882-40.224-5.65-2.423 3.558-5.163 6.883-8.167 9.948 67.547 21.794 143.155-5.056 181.656-65.38zm4.777 35.681c-1.352-4.51-2.371-9.207-2.998-14.057-8.249 10.446-17.66 19.861-28.02 28.087 10.957-2.942 21.394-7.651 31.018-14.03zm170.107-25.811c0-34.822-22.857-63.151-50.952-63.151-8.742 0-17.374 2.808-24.962 8.121-2.41 1.688-5.619 1.688-8.029 0-7.588-5.313-16.22-8.121-24.962-8.121-28.095 0-50.952 28.329-50.952 63.151s22.857 63.152 50.952 63.152c8.743 0 17.374-2.809 24.961-8.121 1.206-.845 2.61-1.267 4.016-1.267s2.81.422 4.016 1.267c7.587 5.312 16.218 8.121 24.961 8.121 28.094.001 50.951-28.33 50.951-63.152z" fill="#dfdfdf" fill-opacity="1" data-original-color="#000000ff" stroke="none" stroke-opacity="1"/></g></svg>