<svg version="1.1" id="Capa_1" xmlns="http://www.w3.org/2000/svg" xmlns:xlink="http://www.w3.org/1999/xlink" x="0px" y="0px" viewBox="0 0 512 512" style="enable-background:new 0 0 512 512;" xml:space="preserve" width="300" height="300" xmlns:svgjs="http://svgjs.dev/svgjs"><g width="100%" height="100%" transform="matrix(1,0,0,1,0,0)"><g>
	<g>
		<path d="M408,0H104C46.656,0,0,46.656,0,104v304c0,57.344,46.656,104,104,104h304c57.344,0,104-46.656,104-104V104&#10;&#9;&#9;&#9;C512,46.656,465.344,0,408,0z M496,408c0,48.52-39.48,88-88,88H104c-48.52,0-88-39.48-88-88V104c0-48.52,39.48-88,88-88h304&#10;&#9;&#9;&#9;c48.52,0,88,39.48,88,88V408z" fill="#ffffff" fill-opacity="1" data-original-color="#000000ff" stroke="none" stroke-opacity="1"/>
	</g>
</g><g>
	<g>
		<path d="M368,48H144c-52.936,0-96,43.064-96,96v224c0,52.936,43.064,96,96,96h224c52.936,0,96-43.064,96-96V144&#10;&#9;&#9;&#9;C464,91.064,420.936,48,368,48z M448,368c0,44.112-35.888,80-80,80H144c-44.112,0-80-35.888-80-80V144c0-44.112,35.888-80,80-80&#10;&#9;&#9;&#9;h224c44.112,0,80,35.888,80,80V368z" fill="#ffffff" fill-opacity="1" data-original-color="#000000ff" stroke="none" stroke-opacity="1"/>
	</g>
</g><g>
	<g>
		<path d="M256,120c-74.992,0-136,61.008-136,136s61.008,136,136,136s136-61.008,136-136S330.992,120,256,120z M256,376&#10;&#9;&#9;&#9;c-66.168,0-120-53.832-120-120s53.832-120,120-120s120,53.832,120,120S322.168,376,256,376z" fill="#ffffff" fill-opacity="1" data-original-color="#000000ff" stroke="none" stroke-opacity="1"/>
	</g>
</g><g>
	<g>
		<path d="M256,160c-52.936,0-96,43.064-96,96c0,52.936,43.064,96,96,96c52.936,0,96-43.064,96-96C352,203.064,308.936,160,256,160z&#10;&#9;&#9;&#9; M256,336c-44.112,0-80-35.888-80-80s35.888-80,80-80s80,35.888,80,80S300.112,336,256,336z" fill="#ffffff" fill-opacity="1" data-original-color="#000000ff" stroke="none" stroke-opacity="1"/>
	</g>
</g><g>
	<g>
		<path d="M384,88c-17.648,0-32,14.352-32,32s14.352,32,32,32s32-14.352,32-32S401.648,88,384,88z M384,136c-8.824,0-16-7.176-16-16&#10;&#9;&#9;&#9;c0-8.824,7.176-16,16-16c8.824,0,16,7.176,16,16S392.824,136,384,136z" fill="#ffffff" fill-opacity="1" data-original-color="#000000ff" stroke="none" stroke-opacity="1"/>
	</g>
</g><g>
	<g>
		<path d="M200,256h16c0-22.056,17.944-40,40-40v-16C225.12,200,200,225.12,200,256z" fill="#ffffff" fill-opacity="1" data-original-color="#000000ff" stroke="none" stroke-opacity="1"/>
	</g>
</g><g>
</g><g>
</g><g>
</g><g>
</g><g>
</g><g>
</g><g>
</g><g>
</g><g>
</g><g>
</g><g>
</g><g>
</g><g>
</g><g>
</g><g>
</g></g></svg>