<svg id="Layer_1" enable-background="new 0 0 512 512" height="300" viewBox="0 0 512 512" width="300" xmlns="http://www.w3.org/2000/svg" version="1.1" xmlns:xlink="http://www.w3.org/1999/xlink" xmlns:svgjs="http://svgjs.dev/svgjs"><g width="100%" height="100%" transform="matrix(1,0,0,1,0,0)"><path d="m335.544 255.522h108.42c2.565 0 4.924-1.403 6.149-3.656s1.12-4.996-.274-7.149l-36.788-56.812c-1.29-1.992-3.502-3.195-5.875-3.195h-71.632c-3.866 0-7 3.134-7 7v56.812c0 3.866 3.134 7 7 7zm7-56.812h60.826l27.722 42.812h-88.548zm145.116 155.692v-99.385c0-5.762-1.523-10.915-4.655-15.752l-45.815-70.754c-5.443-8.408-14.31-13.229-24.326-13.229h-99.568v-73.402c0-3.866-3.134-7-7-7h-279.306c-3.866 0-7 3.134-7 7v273.722c-6.452 2.737-10.99 9.135-10.99 16.573v16.949c0 9.92 8.07 17.991 17.99 17.991h49.801c9.503 17.833 28.286 30.004 49.865 30.004s40.361-12.171 49.864-30.004h154.608c9.503 17.833 28.286 30.004 49.865 30.004s40.361-12.171 49.864-30.004h54.152c9.919 0 17.99-8.071 17.99-17.991v-16.949c.001-9.017-6.675-16.485-15.339-17.773zm-14-24.55h-.949c-4.643 0-8.42-3.777-8.42-8.42s3.777-8.42 8.42-8.42h.949zm-60.797-160.57c5.33 0 9.678 2.365 12.575 6.838l45.815 70.754c1.664 2.57 2.406 5.081 2.406 8.143v43.994h-.949c-12.363 0-22.42 10.058-22.42 22.42s10.058 22.42 22.42 22.42h.949v10.333h-42.802c-9.503-17.834-28.286-30.005-49.864-30.005-21.579 0-40.361 12.171-49.865 30.005h-17.834v-184.902zm-286.207 154.898c-21.579 0-40.361 12.171-49.865 30.005h-42.801v-43.155h265.304v43.155h-122.773c-9.504-17.834-28.286-30.005-49.865-30.005zm172.639-235.3v208.149h-265.305v-208.149zm-272.305 304.235c-2.2 0-3.99-1.79-3.99-3.991v-16.949c0-2.201 1.79-3.991 3.99-3.991h44.6c-.908 4.013-1.404 8.182-1.404 12.466s.495 8.452 1.404 12.465zm99.666 30.005c-23.418 0-42.47-19.052-42.47-42.469 0-23.418 19.052-42.471 42.47-42.471s42.47 19.052 42.47 42.471c0 23.417-19.052 42.469-42.47 42.469zm55.067-30.005c.908-4.013 1.404-8.181 1.404-12.465s-.495-8.452-1.404-12.466h144.205c-.908 4.013-1.404 8.182-1.404 12.466s.495 8.452 1.404 12.465zm199.271 30.005c-23.418 0-42.47-19.052-42.47-42.469 0-23.418 19.052-42.471 42.47-42.471s42.47 19.052 42.47 42.471c0 23.417-19.052 42.469-42.47 42.469zm108.006-33.995c0 2.201-1.79 3.991-3.99 3.991h-48.95c.908-4.013 1.404-8.181 1.404-12.465s-.495-8.452-1.404-12.466h48.95c2.2 0 3.99 1.79 3.99 3.991zm-108.006-32.254c-13.112 0-23.779 10.667-23.779 23.779s10.667 23.779 23.779 23.779 23.779-10.667 23.779-23.779-10.667-23.779-23.779-23.779zm0 33.558c-5.392 0-9.779-4.387-9.779-9.779s4.387-9.779 9.779-9.779 9.779 4.387 9.779 9.779-4.387 9.779-9.779 9.779zm-254.338-33.558c-13.112 0-23.779 10.667-23.779 23.779s10.667 23.779 23.779 23.779 23.779-10.667 23.779-23.779-10.667-23.779-23.779-23.779zm0 33.558c-5.392 0-9.779-4.387-9.779-9.779s4.387-9.779 9.779-9.779 9.779 4.387 9.779 9.779-4.387 9.779-9.779 9.779zm238.998-114.826c0 3.866-3.134 7-7 7h-23.11c-3.866 0-7-3.134-7-7s3.134-7 7-7h23.11c3.866 0 7 3.134 7 7z" fill="#dfdfdf" fill-opacity="1" data-original-color="#000000ff" stroke="none" stroke-opacity="1"/></g></svg>