<svg id="Layer_1" enable-background="new 0 0 512 512" viewBox="0 0 512 512" xmlns="http://www.w3.org/2000/svg" width="300" height="300" version="1.1" xmlns:xlink="http://www.w3.org/1999/xlink" xmlns:svgjs="http://svgjs.dev/svgjs"><g width="100%" height="100%" transform="matrix(1,0,0,1,0,0)"><path d="m487.909 402.731c6.47-11.13 11.301-25.714 13.631-41.617 3.064-20.919 1.225-40.583-5.049-53.949-6.141-13.083-16.612-20.288-29.486-20.288-12.631 0-22.189 3.38-28.574 10.042-.989-.874-2.022-1.672-3.087-2.417 4.016-11.487 10.555-21.669 19.49-30.324 1.384-1.341 2.153-3.193 2.128-5.121-.025-1.927-.845-3.758-2.264-5.062l-26.924-24.73c-2.538-2.332-6.395-2.469-9.092-.324-1.142.907-27.154 22.134-25.951 66.326-.696.526-1.379 1.075-2.042 1.659-6.385-6.668-15.945-10.05-28.581-10.05-10.088 0-18.702 4.36-24.912 12.607-12.255 16.275-13.009 44.946-8.381 68.657l-39.513-8.547c14.236-66.445 47.179-119.142 48.632-121.442.368-.584.705-1.184 1.026-1.792 6.398 2.182 13.163 3.336 20.032 3.336 34.298 0 62.201-27.903 62.201-62.201 0-22.993-12.354-43.586-32.062-54.439 3.477-7.147 5.288-14.993 5.288-23.07 0-29.146-23.713-52.859-52.859-52.859-6.537 0-13.007 1.214-19.056 3.548-12.233-25.208-38.076-41.674-66.512-41.674s-54.279 16.467-66.512 41.676c-6.05-2.334-12.521-3.548-19.056-3.548-29.146 0-52.859 23.712-52.859 52.859 0 8.077 1.812 15.922 5.289 23.07-19.709 10.853-32.062 31.447-32.062 54.439 0 34.297 27.903 62.201 62.201 62.201 6.868 0 13.631-1.154 20.028-3.335.324.613.667 1.218 1.041 1.809 1.396 2.209 33.423 53.393 47.995 118.576-6.113 2.471-11.929 5.849-17.238 10.132-8.857 7.146-15.734 16.135-20.283 26.213-3.153-4.792-6.987-9.734-11.346-14.593 1.37-3.174 2.535-6.462 3.442-9.844 7.224-26.963 1.175-54.448-14.699-71.425.21-1.793-.275-3.644-1.441-5.133-13.65-17.432-31.514-26.709-52.038-27.137l1.411-18.535c.148-1.943-.521-3.86-1.846-5.29-1.324-1.43-3.185-2.242-5.134-2.242h-17.108c-1.949 0-3.81.812-5.134 2.242-1.325 1.429-1.994 3.346-1.846 5.29l1.411 18.535c-20.521.429-38.388 9.707-52.038 27.137-1.166 1.488-1.651 3.339-1.441 5.132-15.875 16.977-21.922 44.463-14.697 71.425 8.178 30.523 35.432 51.584 70.665 55.436 1.356 14.272 25.471 21.085 50.576 21.754-8.725 9.026-15.81 18.623-20.081 27.231-7.271 14.655-4.301 22.227-.529 25.998 2.086 2.086 5.332 3.926 10.296 3.926 4.014 0 9.151-1.204 15.703-4.455 9.191-4.56 19.511-12.329 29.057-21.875 7.146-7.146 13.184-14.608 17.675-21.68 4.568 9.546 11.195 18.026 19.592 24.801 12.086 9.751 26.366 14.815 41.259 14.815 4.752 0 9.568-.516 14.393-1.56l224.665-48.598h.001c10.415-2.253 17.689-10.983 17.689-21.228-.001-9.363-6.087-17.443-15.084-20.488zm-20.904-101.854c7.449 0 12.948 4.002 16.812 12.236 10.057 21.427 4.512 64.734-10.366 86.315l-27.648-5.981c10.506-25.914 13.365-62.914 1.391-85.236 2.67-3.702 7.924-7.334 19.811-7.334zm-72.881 81.392c-7.633-23.125-8.995-54.674 1.976-70.475 4.451-6.412 10.488-9.528 18.457-9.528 8.59 0 14.964 3.636 19.485 11.115 11.005 18.203 7.902 54.038-2.163 77.056zm29.096-138.176 16.75 15.385c-7.737 8.742-13.605 18.642-17.537 29.555-2.513-.502-5.138-.769-7.876-.769-2.71 0-5.311.266-7.805.762.849-23.595 10.672-38.275 16.468-44.933zm-74.84 63.813c3.562-4.729 8.052-7.028 13.729-7.028 11.882 0 17.137 3.63 19.807 7.332-10.059 18.71-9.564 47.085-3.382 70.687l-34.675-7.501c-6.342-25.198-4.581-51.402 4.521-63.49zm-243.588-130.41c0-19.935 11.98-37.542 30.521-44.857 1.99-.785 3.512-2.437 4.132-4.484.619-2.047.269-4.266-.952-6.022-4.532-6.521-6.928-14.179-6.928-22.146 0-21.427 17.433-38.859 38.859-38.859 6.737 0 13.375 1.751 19.196 5.065 1.792 1.021 3.946 1.198 5.882.485 1.937-.713 3.46-2.244 4.162-4.185 8.558-23.622 31.193-39.493 56.328-39.493s47.771 15.872 56.327 39.494c.702 1.94 2.226 3.472 4.162 4.185s4.09.535 5.883-.486c5.818-3.313 12.456-5.065 19.195-5.065 21.427 0 38.859 17.432 38.859 38.859 0 7.967-2.396 15.625-6.927 22.146-1.221 1.756-1.571 3.975-.952 6.022.62 2.047 2.142 3.699 4.132 4.484 18.541 7.314 30.521 24.922 30.521 44.857 0 26.578-21.623 48.201-48.201 48.201-13.428 0-26.352-5.669-35.458-15.554-1.639-1.778-4.076-2.583-6.453-2.135-2.375.451-4.35 2.095-5.223 4.349-8.866 22.89-31.316 38.27-55.866 38.27s-47.001-15.379-55.867-38.269c-.873-2.254-2.848-3.898-5.223-4.349-.435-.082-.871-.123-1.305-.123-1.937 0-3.81.805-5.148 2.257-9.105 9.885-22.029 15.554-35.456 15.554-26.577-.001-48.2-21.623-48.2-48.201zm159.687 86.622c-2.993 6.87-5.839 13.769-8.486 20.675-2.648-6.908-5.495-13.807-8.487-20.675 2.799.329 5.63.508 8.487.508 2.856 0 5.687-.179 8.486-.508zm-78.583-33.427c-.067-.106-.125-.217-.189-.325 1.935-1.195 3.813-2.488 5.613-3.893 8.615 15.496 22.603 27.325 38.976 33.464 7.286 15.781 13.701 31.826 19.063 47.741.96 2.848 3.629 4.765 6.634 4.765s5.674-1.918 6.634-4.765c5.358-15.906 11.773-31.951 19.061-47.741 16.374-6.139 30.362-17.969 38.977-33.465 1.797 1.404 3.672 2.694 5.604 3.888-.065.111-.114.228-.183.337-1.496 2.369-35.69 57.068-50.464 125.938l-14.983-3.241c-8.367-1.809-16.868-1.936-25.101-.507-15.196-67.17-48.198-119.909-49.642-122.196zm-35.857 169.564c-1.711-1.542-3.414-3.132-5.073-4.791-17.168-17.169-22.62-31.31-22.252-35.105 3.81-.36 17.937 5.085 35.104 22.252 7.657 7.656 14.021 15.864 17.977 22.986-7.224-2.775-16.225-4.534-25.756-5.342zm-54.707-147.361-1.001 13.138-1.001-13.138zm-8.175 26.298c2.035.185 4.075-.543 5.541-1.989.728-.718 1.28-1.577 1.633-2.511.353.934.905 1.793 1.633 2.511 1.466 1.445 3.49 2.177 5.541 1.989 10.706-.957 20.433.844 29.119 5.379-3.161-.244-6.146-.297-9.03-.167-2.553.116-4.839 1.614-5.965 3.908-1.127 2.294-.913 5.02.557 7.11 1.138 1.618 2.297 3.372 3.418 5.169-3.796-1.198-6.825-1.758-8.01-1.951-3.742-.607-7.286 1.869-8 5.592-1.2 6.269-3.77 14.633-9.263 22.114-5.491-7.48-8.062-15.847-9.263-22.115-.641-3.344-3.567-5.684-6.867-5.684-.374 0-.753.03-1.133.092-1.185.193-4.214.753-8.01 1.951 1.121-1.797 2.28-3.552 3.418-5.169 1.47-2.091 1.684-4.816.557-7.11-1.126-2.294-3.412-3.792-5.965-3.908-2.882-.131-5.869-.079-9.03.167 8.687-4.532 18.424-6.335 29.119-5.378zm-61.601 85.84c-6.928-25.855.469-51.922 17.984-63.915 3.629-.843 6.986-1.494 10.097-1.95-3.292 5.981-6.334 12.892-6.45 18.16-.065 2.973 1.754 5.663 4.537 6.708s5.924.217 7.831-2.063c3.213-3.843 8.69-6.428 13.485-7.968 2.597 8.869 7.433 19.328 16.439 27.988 1.354 1.303 3.103 1.955 4.852 1.955 1.748 0 3.497-.651 4.852-1.954 9.007-8.66 13.844-19.12 16.439-27.988 4.796 1.539 10.272 4.125 13.485 7.967 1.907 2.281 5.046 3.109 7.831 2.063 2.783-1.045 4.603-3.735 4.537-6.708-.116-5.268-3.158-12.179-6.45-18.16 3.111.456 6.467 1.107 10.097 1.95 17.515 11.993 24.913 38.06 17.985 63.915-.232.865-.492 1.718-.762 2.568-7.958-7.201-16.196-13.048-23.685-16.763-14.654-7.271-22.228-4.301-25.998-.529-3.772 3.771-6.742 11.344.528 25.999 3.704 7.465 9.523 15.673 16.693 23.608-16.297.8-31.748 4.245-40.317 10.695-24.847-1.365-55.533-13.935-64.01-45.578zm71.287 57.785c2.423-2.943 16.277-9.088 40.558-9.088s38.135 6.145 40.558 9.088c-2.423 2.943-16.277 9.088-40.558 9.088s-38.135-6.144-40.558-9.088zm60.976 43.954c-17.171 17.169-31.292 22.606-35.105 22.252-.368-3.795 5.084-17.936 22.253-35.105 3.268-3.269 6.643-6.296 10.048-9.054 8.7-1.069 16.742-2.979 23.109-5.785-3.405 7.973-10.907 18.294-20.305 27.692zm324.523-36.005-148.217 32.061v-35.807c0-3.866-3.134-7-7-7s-7 3.134-7 7v38.835l-62.448 13.508c-15.723 3.404-31.317-.314-43.901-10.468-13.729-11.077-21.603-27.871-21.603-46.078 0-17.634 7.813-34.052 21.436-45.043 9.711-7.834 21.1-11.905 32.9-11.905 1.873 0 3.758.105 5.648.312v57.202c0 3.866 3.134 7 7 7s7-3.134 7-7v-54.471l121.936 26.376v28.095c0 3.866 3.134 7 7 7s7-3.134 7-7v-25.067l80.249 17.359c3.979.86 6.65 3.893 6.65 7.545s-2.673 6.685-6.65 7.546z" fill="#dfdfdf" fill-opacity="1" data-original-color="#000000ff" stroke="none" stroke-opacity="1"/></g></svg>